<svg xmlns="http://www.w3.org/2000/svg" xml:space="preserve" viewBox="0 0 150 150">
  <path fill="gray" fill-opacity=".3" d="M94.8 93.4 28.5 101c-.3 0-.2.4 0 .4H97a19 19 0 0 0 18-13l10-30.6c.1-.2-.3-.4-.4-.2L109 84.4a18.8 18.8 0 0 1-14 9"/>
  <path fill="#5d5d5d" fill-opacity=".3" d="m74.6 68-1 5.5h1.5a4.7 4.7 0 0 0 2.7-.7c.7-.4 1-1 1.2-2 .2-.9 0-1.6-.4-2-.5-.6-1.3-.8-2.4-.8zm-5-3.4h7.6c3 0 5 .5 6.3 1.4 1.2 1 1.7 2.5 1.3 4.6a7 7 0 0 1-3 4.8c-1.5 1-3.7 1.6-6.3 1.6H73l-1 6.6h-5.7Zm-16.7 3.6-2 11.6h2.4a7.6 7.6 0 0 0 4.8-1.5 6.8 6.8 0 0 0 2.4-4.4c.3-1.8 0-3.2-1-4.2S57 68.2 55 68.2zm-5-3.6h7.4c2 0 3.5 0 4.8.3a8.7 8.7 0 0 1 3 1 7.1 7.1 0 0 1 2.9 3.4c.5 1.3.6 3 .3 4.6-.3 2-1 3.8-2.1 5a12 12 0 0 1-4.3 3.5 12.3 12.3 0 0 1-3.4 1 38.1 38.1 0 0 1-5.3.2h-6.8zm7.3-8 66.3-7.6c.3 0 .2-.4 0-.4H53a19 19 0 0 0-18 13L25 92.1c-.1.2.3.4.4.2L41 65.6c3-5 8.3-8.5 14.2-9m31.8 8h5.6l-1.4 8.3 8-8.2h6.3l-9.3 8.7 6.8 10.3h-7l-5-8.9-1.5 8.9h-5.7z"/>
</svg>
