<svg xmlns="http://www.w3.org/2000/svg" xml:space="preserve" viewBox="0 0 1134 597">
  <path fill="#ffd200" d="M791 507.3 40.2 591.6c-3.4.4-3.1 5.4.3 5.4h775.7c92.1 0 173.9-59 202.8-146.5l114.7-346.8c1-3-3.2-5-4.9-2.2L951.2 403.4a213.7 213.7 0 0 1-160.3 104"/>
  <path fill="#005db9" d="m562.8 220.1-11.2 62.5h17A53 53 0 0 0 599 275c7.4-5 12-12.5 13.8-22.4 1.9-10.6 0-18.7-5.5-24.2-5.6-5.5-14.7-8.3-27.3-8.3zm-57.2-38.7h85.9c33.6 0 57.5 5.5 71.6 16.7 14.1 11.1 19.1 28.4 15 51.7a77.7 77.7 0 0 1-33.4 53.3c-18 12.2-42.3 18.2-72.6 18.2h-27.4l-13.4 75.1h-64.1ZM316 222.8l-23.3 130.5h27.7a86 86 0 0 0 55.3-17.1 76.6 76.6 0 0 0 27.1-48.6c3.7-20.8.2-36.8-10.6-48-10.8-11.2-28-16.8-51.9-16.8zm-57-41.4h84.2c22 0 40.1 1.2 54.5 3.7a98.1 98.1 0 0 1 34.2 11.4 80.5 80.5 0 0 1 32.8 38c6.2 15.2 7.5 33 4 53.1-4 22.2-12 41-24.2 56.6a134.9 134.9 0 0 1-49.3 38.3 139 139 0 0 1-38.3 10.6 432.4 432.4 0 0 1-60.1 3.3h-76.3Zm84-91.7 750.7-84.3c3.4-.4 3.1-5.4-.3-5.4H317.7C225.6 0 143.8 59 115 146.5L.2 493.3c-1 3 3.2 5 4.9 2.2l177.7-301.9c34-58 93.5-96.4 160.3-104m361 91.8h64l-16.6 92.9 91-93h71.7l-105.9 98.9L885 396.4h-79.7l-57.8-99.7-17.8 99.7h-64Z"/>
</svg>
