<svg xmlns="http://www.w3.org/2000/svg" viewBox="0 0 150 150">
  <path fill="#757575" fill-opacity=".3" d="m37.1 82 6.3-5.6c.2-.2.5-.2.6 0l13.8 15.9H46l-.4-.1L37 82Z"/>
  <path fill-opacity=".3" d="M73.5 57.9H47.6L36.7 68.3h-.2l.7-10.2-.2-.2h-9.5v.1L25 92.3h9.9l.9-11.3L58 59h.2l-2.5 33H71c10.5 0 19.6-7.5 20.4-17.1.6-9.5-7.4-17.3-17.8-17.3Zm8 17.2c-.4 4.6-4.8 8.4-9.9 8.4h-5.2v-.2l1.1-16.4.1-.3H73c5 0 8.8 3.8 8.5 8.4zm43-9.6a9 9 0 0 0-2.4-3.8 11.9 11.9 0 0 0-4.1-2.8 16.8 16.8 0 0 0-6-1H94l-2.7 34.4h9.6l.7-10h8.5a16.8 16.8 0 0 0 6.1-1.2 12.8 12.8 0 0 0 8.8-11c0-1.5 0-3-.6-4.5zm-9.1 4.7a4.6 4.6 0 0 1-4.7 4.3h-8.2l-.1-.1.5-8.3.2-.1h8.3c.9 0 1.7.2 2.3.6A3.7 3.7 0 0 1 115 68c.2.8.3 1.4.3 2.2z"/>
</svg>
