<svg xmlns="http://www.w3.org/2000/svg" viewBox="0 0 107 37">
  <path fill="#E30613" d="m13 25.8 6.7-6c.2-.2.5-.2.6 0l14.8 17-.1.1H22.5c-.2 0-.4 0-.5-.2L13 26v-.2Z"/>
  <path fill="#000" d="M51.9 0H24.2l-.1.1-11.5 11c0 .1-.2 0-.2 0L13.2.2 13 0H2.8v.2L0 36.8l.1.1h10.2l.2-.1.9-12v-.1l24-23.2.2.1L33 36.8l.1.1h16c11.3 0 21-8.2 21.8-18.4C71.6 8.3 63 0 51.9 0Zm8.5 18.5c-.4 4.9-5.1 8.9-10.5 8.9h-5.6l-.1-.2 1.3-17.5.1-.2h5.6c5.4 0 9.5 4 9.2 9Zm46-10.3c-.5-1.5-1.3-3-2.5-4.1a12.7 12.7 0 0 0-4.4-3A18 18 0 0 0 93 0H74l-.1.1L71 36.8l.1.1h10l.2-.1.8-10.5.1-.1h9a18 18 0 0 0 6.5-1.2 13.7 13.7 0 0 0 9.3-12c0-1.6 0-3.2-.6-4.8Zm-9.7 5a4.9 4.9 0 0 1-5 4.6h-8.8l-.1-.1.6-8.9.2-.1h8.8c1 0 1.9.2 2.5.7a4 4 0 0 1 1.5 1.6c.2.8.3 1.5.3 2.3Z"/>
</svg>
