<?xml version="1.0" standalone="no"?>
<!DOCTYPE svg PUBLIC "-//W3C//DTD SVG 20010904//EN"
 "http://www.w3.org/TR/2001/REC-SVG-20010904/DTD/svg10.dtd">
<svg version="1.0" xmlns="http://www.w3.org/2000/svg"
 width="1712.000000pt" height="1712.000000pt" viewBox="0 0 1712.000000 1712.000000"
 preserveAspectRatio="xMidYMid meet">
<metadata>
Created by potrace 1.14, written by Peter Selinger 2001-2017
</metadata>
<g transform="translate(0.000000,1712.000000) scale(0.100000,-0.100000)"
fill="#000000" stroke="none">
<path d="M449 11493 c0 -16 -2 -44 -4 -63 -2 -19 -6 -69 -10 -110 -3 -41 -8
-97 -10 -125 -3 -27 -7 -88 -11 -135 -3 -47 -7 -107 -9 -135 -2 -27 -6 -84 -9
-125 -3 -41 -8 -97 -10 -125 -4 -49 -16 -206 -21 -275 -1 -19 -5 -73 -9 -120
-4 -47 -9 -110 -11 -140 -6 -71 -16 -203 -21 -260 -2 -25 -6 -83 -9 -130 -3
-47 -7 -103 -9 -125 -4 -37 -14 -167 -21 -275 -2 -25 -6 -76 -9 -115 -3 -38
-8 -103 -11 -144 -3 -41 -7 -97 -10 -125 -9 -104 -15 -184 -20 -257 -5 -70
-10 -136 -20 -259 -4 -51 -13 -165 -20 -270 -9 -122 -16 -220 -21 -265 -3 -27
-7 -84 -9 -125 -2 -41 -4 -75 -5 -75 0 0 -3 -25 -5 -55 -2 -30 -6 -86 -9 -125
-3 -38 -8 -104 -11 -145 -3 -41 -8 -102 -10 -135 -3 -33 -7 -87 -10 -120 -12
-162 -16 -214 -21 -260 -2 -27 -6 -84 -9 -125 -5 -85 -12 -173 -20 -275 -3
-38 -8 -97 -10 -130 -3 -33 -7 -87 -10 -120 -3 -33 -7 -91 -10 -130 -11 -152
-19 -253 -30 -392 -4 -53 -3 -73 7 -79 19 -13 1638 -11 1655 1 13 10 16 35 28
208 2 38 7 99 10 135 3 37 7 96 10 132 2 36 7 94 10 130 2 36 7 94 9 130 3 36
8 94 10 130 3 36 8 99 11 140 3 41 8 98 10 125 2 28 7 93 10 145 4 52 8 111
10 130 2 19 6 80 10 135 4 55 9 118 10 140 2 22 7 82 10 134 4 52 9 104 11
115 2 11 45 60 96 109 51 49 185 178 298 288 113 109 252 244 310 299 131 127
500 483 634 613 55 54 197 191 315 305 118 114 242 234 276 267 102 98 488
471 621 600 68 66 206 199 305 295 100 96 217 209 259 250 43 41 175 170 295
285 119 116 264 256 322 312 116 112 137 120 135 48 -1 -29 -12 -193 -16 -240
-2 -22 -7 -83 -11 -135 -9 -130 -14 -197 -20 -277 -7 -90 -13 -172 -19 -263
-3 -41 -8 -104 -11 -140 -6 -75 -14 -181 -20 -260 -5 -77 -15 -215 -20 -280
-3 -30 -7 -93 -11 -140 -8 -125 -22 -306 -29 -405 -3 -27 -7 -88 -10 -135 -6
-95 -10 -148 -20 -265 -3 -44 -8 -111 -11 -150 -5 -88 -11 -173 -18 -250 -3
-33 -8 -98 -11 -145 -7 -94 -12 -160 -20 -265 -3 -38 -8 -101 -10 -140 -5 -81
-13 -196 -20 -275 -12 -156 -17 -220 -21 -275 -4 -72 -10 -141 -19 -255 -4
-47 -8 -114 -10 -150 -2 -36 -6 -87 -9 -115 -2 -27 -7 -90 -11 -140 -3 -49 -8
-115 -10 -146 -5 -58 -15 -193 -20 -269 -1 -25 -3 -63 -4 -85 l-1 -40 -26 30
c-31 36 -125 144 -139 159 -5 6 -39 45 -74 86 -36 41 -70 80 -75 85 -6 6 -36
39 -66 75 -30 36 -57 67 -60 70 -3 3 -39 43 -80 90 -40 47 -97 112 -126 145
-29 33 -62 71 -73 85 -36 41 -104 120 -136 155 -16 18 -44 51 -62 72 -17 21
-46 54 -65 74 -18 20 -49 56 -70 80 -46 56 -152 178 -203 233 -5 6 -37 43 -69
81 -33 39 -64 75 -70 80 -6 6 -36 39 -66 75 -30 36 -67 77 -82 93 -15 15 -26
27 -23 27 2 0 -6 11 -18 23 -33 35 -129 145 -152 174 -11 14 -33 40 -50 57
-16 18 -47 52 -67 76 -20 25 -49 59 -63 75 -15 17 -52 59 -83 94 -31 35 -62
71 -68 79 -16 22 -70 17 -97 -10 -13 -13 -57 -52 -97 -88 -41 -36 -78 -70 -84
-75 -6 -6 -74 -66 -151 -135 -77 -68 -145 -129 -151 -135 -6 -5 -44 -39 -84
-75 -40 -36 -85 -76 -100 -90 -15 -14 -56 -51 -91 -82 -35 -31 -80 -71 -99
-88 -19 -18 -61 -55 -94 -83 -132 -116 -134 -122 -83 -178 37 -41 88 -102 177
-209 34 -41 83 -99 109 -129 25 -29 55 -65 66 -79 11 -14 30 -35 43 -48 12
-13 22 -26 22 -30 0 -4 8 -14 18 -23 9 -9 51 -56 92 -106 41 -49 84 -101 96
-115 12 -14 64 -74 114 -135 51 -60 109 -130 130 -155 21 -25 79 -94 130 -155
51 -60 109 -130 130 -155 64 -76 223 -264 266 -316 l41 -49 2234 2 c1229 0
2275 4 2324 7 114 8 227 20 285 31 14 2 43 7 65 10 23 3 52 8 65 10 14 3 39 8
56 11 25 4 265 63 319 78 9 2 93 27 105 31 3 1 12 5 20 8 8 4 42 15 75 26 33
11 76 26 95 34 49 20 74 30 80 32 60 20 297 135 390 189 47 27 100 57 118 67
45 26 86 52 92 59 3 3 23 17 45 30 22 13 45 28 50 32 6 5 48 36 95 71 47 34
92 69 101 77 9 8 26 22 37 30 107 80 346 317 454 451 99 122 194 251 233 317
6 9 12 19 15 22 6 6 35 55 52 90 7 14 16 27 19 30 4 3 41 75 82 160 142 290
236 592 273 875 3 22 9 65 13 94 9 60 7 456 -3 536 -8 68 -27 196 -32 218 -2
9 -6 27 -10 40 -3 12 -7 31 -9 42 -5 29 -35 148 -40 163 -2 7 -5 16 -6 20 -4
19 -81 227 -100 269 -55 123 -143 292 -180 345 -11 14 -19 31 -19 37 0 6 -4
11 -8 11 -4 0 -16 15 -27 33 -31 53 -126 178 -214 281 -49 58 -238 245 -296
294 -245 204 -567 398 -828 499 -51 19 -98 40 -104 45 -7 6 -13 8 -13 4 0 -3
-24 4 -52 15 -29 12 -60 22 -68 24 -8 2 -63 17 -122 33 -58 17 -121 33 -140
37 -18 3 -37 7 -43 9 -44 12 -174 35 -240 42 -37 3 -80 10 -145 22 -14 2
-1092 6 -2396 8 l-2371 5 -89 -86 c-49 -47 -151 -145 -228 -218 -76 -73 -179
-171 -230 -219 -50 -48 -94 -88 -98 -88 -5 0 -8 -7 -8 -15 0 -8 -4 -15 -8 -15
-8 0 -50 -39 -322 -300 -96 -92 -202 -194 -235 -225 -108 -102 -468 -446 -578
-554 -68 -65 -103 -76 -93 -29 3 13 8 64 11 113 12 174 13 191 19 265 3 41 9
109 11 150 6 94 13 187 20 270 3 36 7 97 10 135 2 39 7 102 10 140 10 125 15
199 20 285 3 47 7 105 10 130 16 158 16 230 1 245 -13 13 -117 15 -830 15
l-816 0 -1 -27z m7064 -1493 c43 3 80 3 82 1 2 -2 53 -3 112 -2 59 2 113 2
118 2 6 0 35 0 65 0 134 -1 189 -2 243 -4 31 -1 57 2 57 6 0 5 3 6 8 3 4 -2
51 -7 103 -10 53 -4 107 -9 120 -11 13 -3 41 -7 64 -11 22 -3 65 -12 95 -20
30 -9 63 -17 73 -19 82 -18 387 -157 387 -176 0 -5 5 -9 11 -9 33 0 225 -168
316 -276 48 -57 123 -167 123 -181 0 -6 3 -13 8 -15 10 -5 72 -131 72 -149 0
-8 4 -19 9 -24 15 -15 61 -182 73 -265 12 -81 18 -308 9 -325 -3 -5 -7 -19 -7
-30 -4 -47 -15 -105 -34 -170 -11 -38 -22 -74 -24 -80 -1 -5 -10 -27 -19 -49
-9 -21 -17 -41 -17 -45 0 -15 -93 -191 -102 -191 -5 0 -6 -4 -3 -10 3 -5 3
-10 -2 -10 -4 0 -14 -12 -20 -27 -7 -16 -23 -39 -35 -53 -13 -14 -31 -37 -40
-51 -20 -32 -98 -118 -163 -180 -232 -222 -553 -388 -865 -448 -94 -18 -113
-21 -180 -27 -108 -11 -1033 -11 -1057 -1 -19 9 -22 16 -18 61 2 28 6 92 10
141 3 50 8 108 10 130 2 22 7 81 10 130 3 50 7 113 10 140 2 28 6 88 10 135 3
47 8 105 10 130 3 41 9 117 20 285 2 33 6 83 9 110 3 28 8 91 11 140 3 50 8
117 11 150 3 33 7 96 9 140 2 44 5 80 5 80 2 0 8 75 14 175 3 47 7 110 10 140
3 30 8 89 11 130 3 41 7 102 10 135 3 33 8 94 10 135 3 41 8 102 10 135 2 33
6 92 9 130 6 97 11 108 52 103 19 -2 34 -1 34 3 0 3 17 3 38 0 20 -4 72 -4
115 -1z"/>
<path d="M11826 11493 c-6 -31 -14 -124 -31 -353 -2 -30 -7 -89 -10 -130 -14
-169 -16 -197 -20 -245 -3 -27 -7 -88 -10 -135 -4 -47 -8 -101 -10 -120 -1
-19 -6 -78 -10 -130 -4 -52 -9 -111 -10 -130 -2 -19 -6 -73 -10 -120 -13 -174
-15 -197 -21 -275 -4 -44 -8 -106 -8 -137 -1 -32 -3 -58 -6 -58 -3 0 -5 -12
-6 -27 -1 -33 -13 -197 -19 -268 -2 -27 -7 -81 -10 -120 -3 -38 -7 -92 -10
-120 -2 -27 -7 -88 -10 -135 -3 -47 -8 -105 -10 -130 -2 -25 -6 -81 -10 -125
-3 -44 -8 -102 -10 -130 -3 -27 -7 -84 -10 -125 -3 -41 -8 -100 -10 -130 -8
-84 -15 -167 -20 -250 -3 -41 -7 -97 -10 -125 -4 -47 -15 -178 -20 -255 -2
-19 -3 -35 -4 -35 -1 0 -4 -40 -7 -90 -9 -145 -11 -170 -13 -170 -1 0 -3 -31
-6 -70 -2 -38 -6 -99 -9 -135 -3 -36 -8 -96 -11 -135 -7 -95 -14 -178 -21
-250 -3 -33 -7 -91 -9 -130 -2 -38 -5 -70 -5 -70 -1 0 -3 -24 -14 -175 -4 -52
-9 -111 -11 -130 -2 -20 -6 -72 -9 -115 -3 -44 -8 -100 -10 -125 -3 -25 -7
-81 -11 -125 -3 -44 -7 -107 -10 -140 -15 -190 -15 -194 3 -203 25 -12 1609
-9 1621 3 6 6 13 50 16 98 3 48 8 106 10 130 3 23 7 83 10 132 3 50 8 113 10
140 8 85 16 187 20 265 3 41 7 102 10 135 5 60 11 135 20 255 3 36 8 99 11
140 3 41 7 98 10 125 10 139 16 222 18 240 1 11 5 25 9 31 4 8 231 11 799 12
436 0 822 3 858 6 82 8 158 16 190 21 14 2 43 6 65 10 22 3 83 14 135 26 119
25 127 27 150 34 10 3 27 8 37 10 98 20 446 154 571 221 89 47 297 177 312
195 3 3 32 28 65 54 33 26 84 72 113 101 30 30 58 54 63 54 5 0 9 3 9 8 0 4
17 25 38 48 62 69 86 97 117 139 17 22 38 49 48 59 9 11 17 26 17 33 0 7 3 13
8 13 7 0 49 62 90 135 32 57 86 159 87 165 1 3 9 23 19 45 10 22 26 63 37 90
11 28 24 59 29 70 16 36 63 202 76 270 2 11 6 31 9 45 11 50 15 76 23 130 8
63 8 465 -1 525 -3 22 -8 63 -12 90 -13 102 -66 293 -95 347 -6 10 -10 23 -10
29 0 18 -94 210 -140 284 -23 39 -62 95 -85 125 -80 103 -347 360 -375 360 -5
0 -10 3 -10 8 0 4 -37 32 -82 61 -46 30 -94 62 -108 71 -23 15 -275 143 -275
139 0 0 -58 17 -130 39 -117 36 -192 56 -250 68 -11 2 -33 7 -50 10 -34 8 -50
10 -115 19 -25 3 -56 8 -70 11 -14 3 -45 8 -70 11 -25 3 -799 8 -1722 10
l-1676 4 -6 -28z m3129 -1377 c154 -37 309 -134 402 -253 18 -22 41 -58 52
-79 45 -89 74 -349 52 -466 -19 -96 -75 -248 -93 -248 -4 0 -8 -5 -8 -11 0
-36 -125 -176 -216 -242 -52 -37 -197 -108 -221 -108 -2 0 -17 -5 -35 -10 -18
-5 -49 -13 -68 -16 -19 -4 -379 -8 -800 -8 l-765 0 1 75 c1 41 5 127 9 190 4
63 9 135 10 160 2 25 6 79 9 120 3 41 8 118 11 170 4 52 8 115 10 140 2 25 7
95 11 155 3 61 7 126 9 145 1 19 6 89 10 155 5 87 11 123 22 132 11 9 208 11
791 9 428 -2 791 -6 807 -10z"/>
</g>
</svg>
