<?xml version="1.0" standalone="no"?>
<!DOCTYPE svg PUBLIC "-//W3C//DTD SVG 20010904//EN"
 "http://www.w3.org/TR/2001/REC-SVG-20010904/DTD/svg10.dtd">
<svg version="1.0" xmlns="http://www.w3.org/2000/svg"
 width="1134.000000pt" height="1134.000000pt" viewBox="0 0 1134.000000 1134.000000"
 preserveAspectRatio="xMidYMid meet">
<metadata>
Created by potrace 1.14, written by Peter Selinger 2001-2017
</metadata>
<g transform="translate(0.000000,1134.000000) scale(0.100000,-0.100000)"
fill="#000000" stroke="none">
<path d="M2978 8644 c-3 -2 -25 -7 -49 -10 -66 -7 -102 -13 -125 -18 -12 -2
-39 -7 -60 -10 -22 -4 -57 -12 -79 -18 -22 -6 -46 -12 -52 -14 -117 -23 -413
-151 -563 -245 -230 -144 -431 -331 -598 -558 -151 -205 -235 -380 -346 -721
-26 -80 -50 -152 -53 -160 -3 -8 -7 -19 -9 -25 -1 -5 -42 -127 -89 -270 -48
-143 -88 -264 -90 -270 -1 -5 -5 -17 -8 -25 -5 -14 -112 -337 -362 -1095 -58
-176 -108 -327 -111 -335 -3 -8 -5 -16 -5 -17 -1 -1 -34 -103 -76 -225 -41
-123 -76 -230 -78 -238 -2 -8 -18 -55 -35 -105 -17 -49 -33 -97 -35 -105 -2
-8 -25 -76 -50 -150 -25 -74 -47 -139 -49 -145 -18 -64 -40 -132 -44 -140 -18
-30 -7 -64 20 -65 7 0 78 105 78 114 0 2 18 34 41 71 22 37 49 82 59 99 19 34
135 231 150 256 36 58 117 198 123 210 4 8 16 29 26 45 10 17 69 116 131 220
62 105 121 204 131 220 10 17 24 41 32 55 16 31 139 240 219 373 32 54 58 102
58 107 0 6 5 10 10 10 6 0 10 5 10 10 0 6 11 29 26 51 14 22 33 55 43 72 10
18 48 82 85 144 36 61 66 114 66 118 0 3 5 11 10 18 19 21 150 247 150 257 0
6 5 10 10 10 6 0 10 4 10 9 0 5 34 66 75 135 41 69 75 130 75 136 0 5 4 10 10
10 5 0 12 11 16 25 3 14 10 25 14 25 4 0 10 8 14 18 3 9 13 31 23 47 114 192
206 339 223 355 3 3 32 39 65 80 62 78 214 232 281 286 21 18 53 43 69 56 51
42 164 118 175 118 5 0 10 3 10 8 0 4 10 12 23 18 12 6 56 29 97 51 41 22 109
55 150 72 41 18 84 36 95 41 22 10 211 68 241 74 10 3 39 9 64 15 58 13 130
24 225 35 22 3 63 8 90 11 28 3 70 8 95 10 57 6 135 14 180 20 62 8 143 17
188 21 25 2 61 6 81 9 38 5 77 9 181 20 36 4 74 9 85 11 11 2 49 6 86 9 36 3
81 8 100 10 19 3 58 7 86 11 29 3 65 7 80 9 37 4 121 14 186 20 28 3 63 7 77
10 14 2 54 6 90 9 36 4 75 8 85 10 11 2 52 7 90 11 39 4 81 8 95 10 14 1 52 6
85 10 33 4 74 8 90 10 17 1 73 8 125 14 52 6 115 13 140 16 25 2 68 7 95 10
28 4 68 8 90 10 44 4 117 12 180 20 71 9 119 14 175 20 30 3 71 7 90 10 41 5
116 14 180 20 25 3 63 7 85 10 22 2 63 7 90 10 28 3 66 8 85 11 19 3 62 7 95
10 80 7 169 17 280 31 28 3 61 7 75 8 28 3 141 15 180 20 55 7 169 20 270 30
49 6 130 15 170 20 48 6 175 19 198 19 12 1 22 3 22 6 0 3 12 5 28 6 33 0 168
13 202 18 14 3 52 7 85 11 33 3 80 8 105 11 25 3 59 7 75 8 17 2 53 6 80 10
28 4 70 8 95 10 25 3 65 7 90 10 55 7 134 17 175 21 38 3 138 14 190 21 22 3
60 7 85 10 56 5 101 10 215 24 50 6 111 13 138 15 109 11 142 15 176 19 20 3
63 8 96 11 33 3 76 8 96 11 20 3 56 7 80 9 97 10 136 14 174 20 22 3 60 8 85
10 25 2 45 4 45 5 0 1 22 3 49 5 28 2 68 6 90 9 43 6 202 24 271 31 101 11
116 16 113 38 l-3 22 -3986 2 c-2192 2 -3988 0 -3991 -3z"/>
<path d="M11282 7620 c-9 -16 -20 -30 -24 -30 -5 0 -8 -5 -8 -11 0 -8 -43 -84
-155 -271 -15 -25 -104 -179 -123 -213 -9 -16 -19 -32 -22 -35 -10 -10 -41
-65 -47 -82 -3 -10 -9 -18 -14 -18 -5 0 -9 -6 -9 -14 0 -8 -6 -21 -12 -28 -11
-11 -23 -31 -72 -123 -6 -11 -14 -22 -17 -25 -3 -3 -31 -50 -63 -105 -60 -105
-61 -107 -113 -192 -18 -30 -33 -56 -33 -59 0 -3 -13 -26 -30 -51 -16 -24 -30
-46 -30 -49 0 -3 -16 -30 -35 -60 -19 -30 -35 -56 -35 -58 0 -2 -18 -33 -40
-67 -22 -35 -43 -71 -47 -79 -7 -18 -137 -241 -169 -290 -12 -19 -43 -71 -68
-115 -26 -44 -51 -87 -56 -95 -20 -34 -109 -188 -128 -220 -138 -243 -489
-829 -524 -875 -227 -298 -460 -499 -751 -649 -93 -48 -198 -94 -277 -121 -3
-1 -12 -4 -20 -8 -25 -9 -144 -45 -170 -51 -67 -15 -128 -27 -160 -32 -19 -3
-46 -7 -60 -10 -14 -2 -50 -7 -80 -10 -30 -3 -68 -7 -85 -9 -16 -2 -57 -6 -90
-10 -33 -3 -73 -8 -90 -10 -16 -2 -57 -7 -90 -10 -33 -3 -78 -8 -100 -11 -22
-3 -58 -8 -80 -10 -77 -8 -140 -15 -175 -19 -19 -2 -59 -7 -89 -9 -30 -3 -71
-8 -90 -10 -20 -3 -61 -8 -91 -11 -30 -3 -66 -7 -80 -9 -24 -5 -103 -14 -180
-21 -39 -4 -106 -11 -225 -25 -44 -5 -107 -12 -140 -16 -33 -3 -73 -8 -90 -10
-16 -2 -57 -6 -90 -10 -33 -3 -70 -7 -83 -9 -13 -2 -53 -7 -90 -11 -75 -7
-117 -12 -117 -14 0 0 -27 -3 -60 -5 -33 -3 -73 -7 -90 -9 -16 -3 -57 -7 -90
-11 -33 -3 -78 -9 -100 -12 -22 -3 -53 -7 -70 -8 -16 -2 -52 -5 -80 -9 -27 -3
-76 -8 -108 -12 -32 -3 -66 -7 -76 -9 -10 -2 -55 -6 -102 -10 -46 -4 -93 -9
-104 -11 -11 -3 -45 -7 -75 -10 -101 -9 -135 -13 -135 -14 0 -1 -13 -3 -30 -4
-27 -3 -107 -12 -190 -21 -16 -2 -55 -7 -85 -10 -30 -3 -71 -8 -90 -10 -19 -3
-60 -7 -90 -10 -30 -3 -71 -7 -90 -10 -19 -2 -60 -7 -90 -10 -30 -3 -71 -8
-90 -10 -71 -10 -117 -15 -180 -21 -101 -10 -209 -22 -265 -29 -107 -13 -142
-17 -270 -30 -33 -4 -76 -9 -95 -11 -19 -3 -55 -7 -80 -9 -75 -8 -125 -14
-125 -15 0 0 -20 -3 -45 -5 -25 -3 -61 -7 -80 -9 -19 -2 -66 -7 -105 -11 -38
-3 -81 -8 -95 -11 -14 -2 -53 -7 -86 -9 -34 -3 -70 -7 -80 -9 -11 -2 -53 -7
-94 -11 -41 -4 -83 -9 -93 -11 -10 -2 -46 -6 -80 -9 -70 -7 -125 -13 -177 -20
-19 -2 -62 -7 -95 -10 -33 -4 -71 -8 -85 -10 -14 -1 -54 -5 -90 -9 -36 -4 -76
-9 -90 -12 -14 -2 -50 -7 -80 -9 -81 -6 -160 -15 -200 -21 -19 -3 -53 -7 -75
-9 -22 -2 -58 -6 -80 -9 -22 -3 -67 -8 -100 -11 -33 -3 -78 -8 -100 -11 -22
-4 -56 -8 -75 -9 -69 -6 -155 -15 -178 -19 -12 -3 -55 -8 -95 -11 -39 -3 -79
-8 -87 -10 -8 -2 -48 -7 -87 -10 -99 -9 -99 -9 -117 -24 -52 -43 -217 -41
4003 -38 2198 2 4012 6 4031 9 19 4 53 10 75 14 22 3 46 7 53 7 6 0 12 4 12 9
0 5 4 7 9 3 8 -5 33 -1 121 20 33 8 178 54 220 70 107 41 296 132 318 153 7 6
18 12 24 12 8 0 153 95 168 110 3 3 30 24 60 47 99 76 158 130 253 234 83 90
86 94 123 144 16 22 31 42 34 45 11 10 121 182 127 198 4 10 9 19 12 22 7 5
60 115 97 197 23 50 92 242 99 273 2 8 11 35 20 60 9 25 18 52 20 60 2 8 78
240 170 515 92 275 168 507 170 515 2 8 4 16 5 18 2 1 3 5 4 10 1 4 17 52 36
107 19 55 35 102 35 105 1 5 195 595 486 1472 93 279 166 514 163 523 -10 24
-34 17 -52 -15z"/>
<path d="M2590 6835 c0 -6 -27 -149 -34 -185 -3 -13 -8 -42 -11 -65 -3 -22
-10 -60 -15 -85 -5 -25 -19 -97 -30 -160 -11 -63 -22 -126 -24 -140 -3 -14 -7
-41 -10 -60 -3 -19 -8 -46 -11 -60 -3 -14 -8 -41 -11 -60 -6 -39 -10 -63 -18
-100 -3 -13 -8 -42 -12 -64 -3 -22 -7 -43 -9 -46 -1 -3 -6 -25 -9 -50 -3 -25
-8 -56 -11 -70 -13 -68 -28 -148 -30 -170 -2 -14 -18 -101 -35 -195 -17 -93
-34 -183 -36 -200 -7 -42 -11 -65 -19 -105 -4 -19 -11 -57 -15 -85 -5 -27 -12
-63 -15 -80 -16 -86 -25 -140 -25 -154 0 -14 52 -16 508 -15 470 2 554 4 732
20 36 4 81 8 100 9 19 2 35 4 35 5 0 1 11 3 25 6 122 21 270 63 325 92 17 9
32 16 35 17 17 1 139 73 211 125 137 97 270 239 346 368 45 76 105 214 118
272 2 8 4 16 5 18 2 1 3 5 4 10 8 31 17 71 21 90 3 12 7 32 10 45 32 146 24
358 -20 492 -17 52 -55 136 -66 145 -3 3 -14 20 -23 38 -16 31 -154 177 -202
213 -61 47 -235 119 -324 135 -82 15 -117 20 -190 28 -30 4 -75 9 -100 12 -37
5 -1170 13 -1170 9z m940 -419 c280 -25 464 -167 505 -391 6 -35 7 -171 2
-200 -3 -11 -7 -36 -11 -55 -11 -61 -14 -74 -26 -120 -7 -25 -16 -50 -21 -56
-6 -7 -12 -22 -14 -34 -2 -13 -11 -30 -20 -40 -8 -9 -15 -20 -15 -24 0 -17
-60 -96 -115 -151 -119 -120 -276 -195 -465 -221 -63 -9 -411 -11 -416 -2 -4
7 3 52 41 263 14 76 18 99 30 170 3 17 7 41 10 55 12 57 15 77 21 120 3 25 8
47 9 50 2 3 6 24 9 46 6 39 10 62 21 114 7 39 15 82 20 120 3 19 8 46 12 60 3
14 7 35 9 46 2 19 9 62 20 119 10 56 16 92 17 110 2 15 11 21 42 25 52 6 239
4 335 -4z"/>
<path d="M5062 6831 c-5 -3 -13 -26 -17 -51 -11 -68 -13 -76 -35 -200 -11 -63
-22 -126 -25 -140 -3 -14 -8 -41 -11 -60 -3 -19 -7 -42 -9 -50 -2 -8 -7 -35
-10 -60 -3 -25 -8 -52 -10 -60 -2 -8 -13 -67 -25 -130 -11 -63 -22 -126 -25
-140 -3 -14 -8 -42 -10 -64 -2 -21 -7 -47 -11 -58 -3 -11 -7 -30 -9 -41 -3
-20 -10 -64 -21 -127 -2 -14 -6 -36 -9 -50 -7 -33 -36 -197 -42 -235 -2 -16
-6 -41 -9 -55 -3 -14 -13 -72 -24 -130 -10 -58 -22 -121 -25 -140 -4 -19 -8
-46 -10 -60 -3 -14 -11 -63 -20 -110 -9 -47 -18 -98 -20 -114 -2 -15 -7 -36
-10 -46 -3 -10 0 -19 7 -22 11 -3 568 -3 618 1 12 1 20 28 35 114 10 61 20
117 21 122 1 6 4 26 8 45 3 19 8 45 10 56 2 12 7 39 10 60 3 22 8 50 11 64 12
55 29 153 40 220 12 71 -3 66 198 67 288 2 420 17 582 70 73 23 197 87 259
132 54 40 156 140 156 153 0 3 6 13 13 20 17 19 44 65 69 118 11 25 25 53 29
63 37 73 64 304 46 397 -15 82 -38 150 -49 150 -4 0 -8 6 -8 14 0 14 -110 136
-122 136 -3 0 -27 12 -54 27 -44 25 -93 46 -134 58 -52 15 -142 34 -185 40
-16 2 -48 7 -70 10 -51 8 -1091 14 -1103 6z m863 -395 c142 -34 199 -98 209
-231 3 -42 -13 -123 -31 -165 -23 -49 -76 -119 -90 -120 -7 0 -13 -3 -13 -8 0
-14 -108 -62 -175 -78 -28 -7 -277 -12 -292 -7 -13 5 -12 49 1 103 6 24 14 65
20 105 2 11 9 49 16 85 22 122 24 135 24 158 1 12 3 22 6 22 3 0 6 8 6 18 1
19 18 116 23 129 3 8 257 -1 296 -11z"/>
<path d="M7036 6805 c-3 -16 -8 -41 -11 -55 -3 -13 -7 -40 -10 -60 -3 -20 -8
-47 -10 -60 -6 -30 -13 -68 -20 -112 -3 -18 -8 -40 -10 -48 -2 -8 -7 -35 -10
-60 -3 -25 -8 -53 -11 -63 -3 -10 -7 -30 -9 -45 -3 -15 -7 -38 -10 -52 -3 -14
-8 -45 -11 -70 -3 -25 -8 -54 -11 -65 -2 -11 -6 -29 -8 -40 -2 -11 -6 -33 -9
-50 -3 -16 -13 -68 -21 -115 -8 -47 -17 -94 -19 -105 -9 -47 -20 -111 -22
-130 -1 -11 -9 -56 -18 -100 -8 -44 -18 -93 -21 -110 -2 -16 -7 -39 -9 -50 -2
-11 -7 -40 -11 -65 -4 -25 -9 -54 -11 -65 -3 -11 -7 -36 -9 -55 -3 -19 -8 -46
-11 -60 -3 -14 -8 -36 -10 -50 -2 -14 -7 -36 -10 -50 -3 -14 -8 -41 -10 -60
-2 -19 -9 -57 -14 -85 -5 -27 -12 -63 -15 -80 -3 -16 -7 -40 -9 -52 -3 -11 -7
-41 -11 -65 l-7 -43 319 0 318 1 12 59 c11 56 15 79 28 160 3 17 8 41 10 55 9
45 15 73 34 185 11 61 22 124 25 140 3 17 8 41 11 55 3 14 8 41 11 60 5 35 8
54 17 100 3 14 11 58 17 98 7 39 15 72 18 72 4 0 23 -28 42 -62 19 -35 50 -88
67 -118 18 -30 36 -62 40 -70 4 -7 23 -41 43 -75 38 -62 73 -124 106 -185 11
-19 21 -37 24 -40 3 -3 11 -16 18 -29 28 -48 51 -88 102 -176 29 -49 64 -110
78 -135 14 -25 32 -56 41 -70 l16 -25 393 0 c215 0 392 4 392 9 0 4 -13 28
-30 53 -16 24 -30 48 -30 54 0 5 -4 9 -8 9 -5 0 -15 12 -23 28 -8 15 -18 32
-22 37 -5 6 -87 129 -183 275 -96 146 -177 270 -182 275 -4 6 -23 35 -42 65
-19 30 -37 57 -41 60 -3 3 -12 16 -19 29 -7 14 -17 30 -22 35 -5 6 -34 49 -63
96 -30 47 -61 94 -70 105 -23 29 -19 39 33 85 41 37 169 156 322 300 26 25 99
92 161 150 62 58 131 122 153 144 23 21 83 77 134 124 141 130 222 208 222
213 0 3 -159 5 -354 5 l-353 -1 -137 -140 c-110 -112 -690 -706 -744 -761 -15
-16 -36 -19 -27 -4 6 10 9 22 19 81 3 19 8 46 11 62 3 15 9 53 15 85 6 31 12
68 15 82 3 14 8 41 11 60 3 19 7 46 10 60 37 211 55 309 59 330 8 35 18 101
19 125 1 20 -5 20 -316 20 l-317 1 -5 -31z"/>
</g>
</svg>
